<svg width="20" height="20" viewBox="0 0 20 20" fill="none" xmlns="http://www.w3.org/2000/svg">
<path d="M0 6C0 2.68629 2.68629 0 6 0H13.9346C17.2483 0 19.9346 2.68629 19.9346 6V14C19.9346 17.3137 17.2483 20 13.9346 20H6C2.68629 20 0 17.3137 0 14V6Z" fill="white"/>
<path d="M14.6187 6.5L8.22305 12.9167L5.31592 10" stroke="black" stroke-width="2" stroke-linecap="round" stroke-linejoin="round"/>
<path d="M6 1H13.9346V-1H6V1ZM18.9346 6V14H20.9346V6H18.9346ZM13.9346 19H6V21H13.9346V19ZM1 14V6H-1V14H1ZM6 19C3.23858 19 1 16.7614 1 14H-1C-1 17.866 2.13401 21 6 21V19ZM18.9346 14C18.9346 16.7614 16.6961 19 13.9346 19V21C17.8006 21 20.9346 17.866 20.9346 14H18.9346ZM13.9346 1C16.6961 1 18.9346 3.23858 18.9346 6H20.9346C20.9346 2.13401 17.8006 -1 13.9346 -1V1ZM6 -1C2.13401 -1 -1 2.13401 -1 6H1C1 3.23858 3.23858 1 6 1V-1Z" fill="black"/>
</svg>
