<svg width="12" height="15" viewBox="0 0 12 15" fill="none" xmlns="http://www.w3.org/2000/svg">
<path fill-rule="evenodd" clip-rule="evenodd" d="M5.31337 0.054732C5.15221 0.130532 4.98638 0.294709 4.90421 0.459724C4.84735 0.573994 4.84349 0.821048 4.83511 4.88892L4.82623 9.19706L3.3264 7.70213C1.70213 6.08313 1.74344 6.1166 1.37397 6.11962C0.946336 6.12308 0.602385 6.47591 0.603189 6.91029C0.603826 7.26776 0.577441 7.23754 2.98805 9.64103C5.37234 12.0183 5.28923 11.9458 5.63188 11.9458C5.97479 11.9458 5.89027 12.0196 8.28478 9.62892C9.80006 8.11604 10.5415 7.35278 10.5898 7.25615C10.7312 6.97277 10.663 6.57486 10.4336 6.34538C10.1976 6.10923 9.81438 6.04671 9.52303 6.19686C9.42402 6.24788 8.88528 6.76228 7.91374 7.73349L6.45328 9.19341L6.43652 4.86765L6.41975 0.541897L6.3183 0.377753C6.17189 0.140895 5.95487 0.0152223 5.66939 0.00197406C5.50538 -0.00563946 5.41248 0.00811177 5.31337 0.054732ZM0.653144 12.9041C0.394049 12.9492 0.152053 13.142 0.0513716 13.3835C-0.0236949 13.5635 -0.0154808 13.8609 0.0693756 14.0363C0.158087 14.2196 0.363641 14.3967 0.545591 14.4466C0.649993 14.4753 1.99516 14.4829 5.72119 14.4758L10.7557 14.4662L10.9001 14.3646C11.1337 14.2005 11.242 14.0175 11.2584 13.7597C11.2817 13.3947 11.1385 13.139 10.8118 12.9623L10.6777 12.8898L5.73246 12.8853C3.01259 12.8828 0.726903 12.8913 0.653144 12.9041Z" fill="black"/>
</svg>
