<svg width="12" height="12" viewBox="0 0 12 12" fill="none" xmlns="http://www.w3.org/2000/svg">
<g clip-path="url(#clip0_2857_41891)">
<path d="M5.12492 11.5099C3.74578 11.5099 2.36663 11.5109 0.988537 11.5088C0.264931 11.5078 0.00313437 11.2554 0.00313437 10.5444C-7.1915e-06 7.76829 -7.1915e-06 4.9922 0.00313437 2.21611C0.00418155 1.57104 0.281686 1.26736 0.912092 1.26317C2.53523 1.25165 4.15837 1.25374 5.78151 1.26945C5.90717 1.2705 6.03074 1.41501 6.15535 1.4925C6.01922 1.57523 5.88413 1.72917 5.748 1.73021C4.19502 1.74697 2.641 1.75744 1.08802 1.73126C0.608408 1.72288 0.438764 1.87682 0.441905 2.35748C0.456566 5.06341 0.454472 7.77039 0.442953 10.4763C0.440858 10.9308 0.616785 11.0837 1.06708 11.0816C3.77196 11.068 6.47789 11.0648 9.18382 11.0837C9.68961 11.0868 9.80794 10.8722 9.8027 10.4229C9.787 8.93904 9.79642 7.45518 9.79747 5.97027C9.79747 5.84775 9.77024 5.71685 9.80585 5.60585C9.84564 5.48228 9.94198 5.37756 10.0132 5.26342C10.0949 5.3828 10.2446 5.50218 10.2467 5.62261C10.2645 6.73995 10.2582 7.8573 10.2582 8.97465C10.2582 9.48149 10.2603 9.98728 10.2572 10.4941C10.253 11.2481 10.0027 11.5067 9.2634 11.5078C7.88321 11.512 6.50407 11.5099 5.12492 11.5099Z" fill="black"/>
<path d="M11.4175 1.01183L10.5535 0.147899C10.3724 -0.0332644 10.0865 -0.0542081 9.91267 0.119625L9.1388 0.893495L8.76076 0.514414C8.68641 0.440064 8.56703 0.440064 8.49268 0.514414L5.92812 3.07793C5.85377 3.15228 5.85377 3.27166 5.92812 3.34601C6.00247 3.42036 6.12185 3.42036 6.1962 3.34601L8.62567 0.917581L8.86967 1.16158L3.52797 6.50327C3.50598 6.52526 3.48923 6.55249 3.48085 6.58286L2.93945 8.38925C2.91956 8.45627 2.93736 8.52853 2.98658 8.57775C3.03579 8.62697 3.1091 8.64477 3.17507 8.62487L4.98147 8.08348C5.01183 8.07405 5.03906 8.05834 5.06105 8.03635L11.4447 1.65271C11.6143 1.48411 11.6018 1.19613 11.4175 1.01183ZM5.90508 6.65616L4.90816 5.65924L9.13775 1.42965L10.1347 2.42658L5.90508 6.65616ZM4.92701 7.63423L3.93009 6.63731L4.64008 5.92732L5.637 6.92424L4.92701 7.63423ZM3.75312 6.9965L4.56887 7.81225L3.40336 8.16201L3.75312 6.9965ZM11.1766 1.38463L10.4027 2.1585L9.40583 1.16158L10.1797 0.387705C10.2017 0.365714 10.2582 0.389799 10.2844 0.415979L11.1483 1.27991C11.1892 1.3197 11.1923 1.36997 11.1766 1.38463Z" fill="#010101"/>
</g>
<defs>
<clipPath id="clip0_2857_41891">
<rect width="11.5641" height="11.5117" fill="white"/>
</clipPath>
</defs>
</svg>
