<svg width="10" height="10" viewBox="0 0 10 10" fill="none" xmlns="http://www.w3.org/2000/svg">
<path d="M9.36872 3.66604L7.8363 5.20104L9.36872 3.66604ZM9.36872 3.66604C9.5695 3.46595 9.72867 3.22794 9.83703 2.96579M9.36872 3.66604L9.83703 2.96579M9.99999 2.13881C10.0008 1.85523 9.9455 1.5743 9.83726 1.31227C9.72902 1.05025 9.57001 0.812334 9.36941 0.612293C8.95891 0.219301 8.41302 0 7.84528 0C7.27754 0 6.73165 0.219301 6.32115 0.612293L9.99999 2.13881ZM9.99999 2.13881C10.0008 2.42256 9.94539 2.70364 9.83703 2.96579M9.99999 2.13881L9.83703 2.96579M9.79999 2.13823L9.79999 2.13936C9.80071 2.39672 9.75047 2.65165 9.6522 2.88939C9.55393 3.12713 9.40958 3.34296 9.22754 3.52438L9.22718 3.52474L7.69476 5.05974L7.55372 5.20102L7.69474 5.34232L8.20795 5.85657C8.20808 5.85669 8.2082 5.85682 8.20832 5.85695C8.30368 5.95377 8.35705 6.08452 8.35668 6.22074C8.3563 6.35713 8.30205 6.48774 8.20593 6.58407C8.10982 6.68037 7.97966 6.73458 7.84391 6.73496C7.70833 6.73534 7.57803 6.68201 7.48142 6.58647C7.48129 6.58635 7.48117 6.58623 7.48105 6.58611L6.96775 6.07176L6.82617 5.9299L6.68461 6.07178L3.11525 9.64905L3.11521 9.64909C3.06747 9.69697 3.0108 9.73493 2.94845 9.76081L3.02515 9.94552L2.94845 9.76081C2.88611 9.7867 2.8193 9.80001 2.75184 9.8H2.75181H0.714285H0.714171C0.646695 9.80004 0.579864 9.78675 0.517495 9.76088L0.440877 9.94563L0.517493 9.76088C0.455123 9.73502 0.398426 9.69708 0.350656 9.64921C0.302884 9.60134 0.264974 9.54448 0.239116 9.48188C0.213257 9.41927 0.199962 9.35216 0.2 9.28438V9.28427V7.24261V7.24258C0.199989 7.17482 0.213309 7.10773 0.239187 7.04515L0.0548934 6.96894L0.239187 7.04515C0.265065 6.98257 0.302988 6.92574 0.350769 6.8779L0.350811 6.87786L3.92084 3.30135L4.06187 3.16007L3.92086 3.01878L3.40676 2.50364L3.40637 2.50325C3.35838 2.45543 3.32026 2.39857 3.29421 2.33592C3.26816 2.27327 3.2547 2.20607 3.2546 2.13818C3.25451 2.07028 3.26779 2.00305 3.29366 1.94033L3.10878 1.86405L3.29366 1.94032C3.31954 1.8776 3.3575 1.82064 3.40536 1.77269C3.45321 1.72474 3.51001 1.68674 3.5725 1.66086C3.63499 1.63498 3.70194 1.62171 3.76953 1.6218C3.83712 1.62189 3.90404 1.63535 3.96646 1.66141C4.02887 1.68747 4.08557 1.72562 4.13329 1.77371L4.13369 1.77411L4.64773 2.28911L4.78932 2.43096L4.93087 2.28907L6.46107 0.755213C6.8342 0.398794 7.32987 0.2 7.84528 0.2C8.36075 0.2 8.85648 0.398845 9.22963 0.755351C9.41082 0.936423 9.55452 1.15164 9.65241 1.38863C9.75057 1.62625 9.80074 1.88103 9.79999 2.13823ZM2.45606 8.76849H2.53903L2.59764 8.70975L5.9577 5.34222L6.09867 5.20094L5.95769 5.05968L4.9309 4.03081L4.78936 3.88898L4.64779 4.0308L1.28702 7.39768L1.22857 7.45624V7.53897V8.56849V8.76849H1.42857H2.45606Z" fill="white" stroke="white" stroke-width="0.4"/>
</svg>
