<svg width="20" height="20" viewBox="0 0 20 20" fill="none" xmlns="http://www.w3.org/2000/svg">
<rect x="0.5" y="0.5" width="19" height="19" rx="1.5" fill="white" stroke="#DFDFDF"/>
<path d="M15.925 5.50283L15.925 5.50397C15.9259 5.8244 15.8632 6.14183 15.7406 6.43788C15.618 6.73393 15.4379 7.00272 15.2107 7.22868L15.2103 7.22904L13.3331 9.10561L13.1916 9.24703L13.3331 9.38848L13.9619 10.0173C13.962 10.0174 13.9621 10.0176 13.9622 10.0177C14.0874 10.1444 14.1574 10.3156 14.1569 10.4938C14.1564 10.6721 14.0854 10.843 13.9593 10.9691C13.8332 11.0952 13.6623 11.1663 13.4839 11.1668C13.3058 11.1673 13.1346 11.0973 13.0079 10.9722C13.0077 10.9721 13.0076 10.9719 13.0075 10.9718L12.3785 10.3428L12.2371 10.2014L12.0956 10.3428L7.72319 14.7161L7.72314 14.7162C7.6605 14.7789 7.58612 14.8286 7.50425 14.8625C7.42238 14.8964 7.33462 14.9139 7.246 14.9139H7.24597H4.75H4.74989C4.66124 14.9139 4.57346 14.8965 4.49156 14.8626C4.40965 14.8287 4.33524 14.779 4.27256 14.7163C4.20988 14.6537 4.16017 14.5792 4.12627 14.4973C4.09237 14.4154 4.07495 14.3276 4.075 14.239V14.2389L4.075 11.7429L4.075 11.7429C4.07499 11.6543 4.09244 11.5665 4.12637 11.4846C4.16029 11.4028 4.21002 11.3284 4.27271 11.2657L4.27275 11.2657L8.64605 6.89334L8.7875 6.75192L8.64606 6.61049L8.01629 5.98072L8.0159 5.98033C7.95294 5.91772 7.90296 5.8433 7.86881 5.76134C7.83466 5.67938 7.81702 5.59149 7.81689 5.5027C7.81677 5.41391 7.83417 5.32597 7.86809 5.24392C7.90201 5.16187 7.95179 5.08731 8.01457 5.02453C8.07735 4.96175 8.15191 4.91197 8.23396 4.87805C8.31602 4.84413 8.40396 4.82673 8.49274 4.82685C8.58153 4.82698 8.66943 4.84462 8.75138 4.87877C8.83334 4.91292 8.90776 4.9629 8.97037 5.02586L8.97077 5.02626L9.60046 5.65586L9.74191 5.79728L9.88332 5.65582L11.7582 3.78026C12.2237 3.33635 12.8422 3.08867 13.4855 3.08867C14.1288 3.08867 14.7474 3.33641 15.2129 3.78042C15.4392 4.00602 15.6186 4.27418 15.7409 4.56945C15.8633 4.86534 15.9259 5.18259 15.925 5.50283ZM6.88367 13.5638H6.96653L7.02511 13.5052L11.1412 9.38836L11.2826 9.24694L11.1412 9.10553L9.88337 7.84772L9.74196 7.70631L9.60054 7.84771L5.48359 11.9638L5.425 12.0224V12.1052V13.3638V13.5638H5.625H6.88367Z" fill="#333333" stroke="white" stroke-width="0.4"/>
</svg>
