<svg width="16" height="16" viewBox="0 0 16 16" fill="none" xmlns="http://www.w3.org/2000/svg">
<path d="M14.5834 7.16602C14.0834 7.16602 13.7501 7.49935 13.7501 7.99935C13.7501 11.2493 11.1667 13.8327 7.91675 13.8327C7.75008 13.8327 7.50008 13.8327 7.33341 13.8327C7.16675 13.8327 7.08341 13.8327 6.91675 13.7493C6.75008 13.7493 6.66675 13.666 6.50008 13.666C6.41675 13.666 6.33341 13.5827 6.25008 13.5827C5.66675 13.416 5.08341 13.0827 4.58341 12.7494C4.50008 12.666 4.41675 12.666 4.41675 12.5827C4.33341 12.4993 4.25008 12.416 4.16675 12.416C4.00008 12.3327 3.83341 12.166 3.75008 12.0827C3.66675 11.9993 3.66675 11.9993 3.58341 11.916L5.08341 11.666C5.50008 11.5827 5.83342 11.166 5.75008 10.666C5.66675 10.2493 5.25008 9.91602 4.75008 9.99935L2.00008 10.4993L1.33341 10.666C1.08341 10.666 0.916748 10.8327 0.833415 10.9993C0.750081 11.166 0.666748 11.416 0.666748 11.5827L1.33341 15.0827C1.41675 15.4993 1.75008 15.7493 2.16675 15.7493C2.25008 15.7493 2.25008 15.7493 2.33341 15.7493C2.75008 15.666 3.08341 15.2493 3.00008 14.7493L2.75008 13.3327C2.91675 13.4993 3.16675 13.666 3.33341 13.8327C3.33341 13.8327 3.33341 13.8327 3.41675 13.8327C3.50008 13.916 3.58341 13.9994 3.66675 13.9994C3.83341 14.166 4.00008 14.2493 4.25008 14.3327C4.41675 14.666 4.66675 14.7493 4.91675 14.916H5.00008C5.08341 14.9993 5.25008 14.9993 5.41675 15.0827C5.75008 15.166 6.08341 15.2493 6.33341 15.3327C6.50008 15.3327 6.66675 15.416 6.83342 15.416H6.91675C7.00008 15.416 7.16675 15.416 7.25008 15.416C7.41675 15.416 7.66675 15.416 7.83342 15.416C12.0001 15.416 15.3334 12.0827 15.3334 7.91602C15.4167 7.49935 15.0001 7.16602 14.5834 7.16602Z" fill="#333333"/>
<path d="M1.33332 8.83252C1.83332 8.83252 2.16665 8.49918 2.16665 7.99918C2.16665 4.74918 4.74999 2.16585 7.99999 2.16585C8.16665 2.16585 8.41665 2.16585 8.58332 2.16585C8.74999 2.16585 8.83332 2.16585 8.99999 2.24918C9.16665 2.24918 9.24999 2.33252 9.41665 2.33252C9.49999 2.33252 9.58332 2.41585 9.66665 2.41585C10.25 2.58252 10.8333 2.83252 11.3333 3.24918C11.4167 3.33252 11.5 3.33252 11.5833 3.41585C11.6667 3.49918 11.75 3.49918 11.8333 3.58252C11.9167 3.66585 12 3.83252 12.1667 3.91585C12.25 3.99918 12.25 3.99918 12.3333 4.08252L10.8333 4.33252C10.4167 4.41585 10.0833 4.83252 10.1667 5.33252C10.25 5.74918 10.5833 5.99918 11 5.99918C11.0833 5.99918 11.0833 5.99918 11.1667 5.99918L14.6667 5.33252C15.0833 5.24918 15.4167 4.83252 15.3333 4.33252L14.6667 0.91585C14.5833 0.499183 14.1667 0.16585 13.6667 0.249183C13.25 0.332517 12.9167 0.749183 13 1.24918L13.25 2.66585C13.0833 2.49918 12.8333 2.24918 12.6667 2.16585C12.6667 2.16585 12.6667 2.16585 12.5833 2.16585C12.5 2.08252 12.4167 1.99918 12.3333 1.99918C12.1667 1.83252 12 1.74918 11.75 1.58252C11.5 1.41585 11.25 1.33252 11 1.16585H10.9167C10.8333 1.08252 10.6667 1.08252 10.5 0.999183C10.1667 0.91585 9.83332 0.832516 9.58332 0.749183C9.41665 0.749183 9.24999 0.66585 9.08332 0.66585H8.99999C8.91665 0.66585 8.74999 0.66585 8.66665 0.66585C8.49999 0.66585 8.24999 0.66585 8.08332 0.66585C3.91665 0.66585 0.583319 3.99918 0.583319 8.16585C0.499985 8.49918 0.833319 8.83252 1.33332 8.83252Z" fill="#333333"/>
</svg>
