<svg width="18" height="19" viewBox="0 0 18 19" fill="none" xmlns="http://www.w3.org/2000/svg">
<path d="M14.843 8.67578C14.3992 8.67578 14.1034 8.97161 14.1034 9.41536C14.1034 12.2997 11.8107 14.5924 8.92632 14.5924C8.7784 14.5924 8.55653 14.5924 8.40861 14.5924C8.26069 14.5924 8.18673 14.5924 8.03882 14.5185C7.8909 14.5185 7.81694 14.4445 7.66903 14.4445C7.59507 14.4445 7.52111 14.3706 7.44715 14.3706C6.92944 14.2227 6.41173 13.9268 5.96798 13.631C5.89403 13.557 5.82007 13.557 5.82007 13.4831C5.74611 13.4091 5.67215 13.3352 5.59819 13.3352C5.45028 13.2612 5.30236 13.1133 5.2284 13.0393C5.15444 12.9654 5.15444 12.9654 5.08048 12.8914L6.41174 12.6695C6.78153 12.5956 7.07736 12.2258 7.0034 11.782C6.92944 11.4122 6.55965 11.1164 6.1159 11.1904L3.67528 11.6341L3.08361 11.782C2.86173 11.782 2.71382 11.9299 2.63986 12.0779C2.5659 12.2258 2.49194 12.4477 2.49194 12.5956L3.08361 15.7018C3.15757 16.0716 3.4534 16.2935 3.82319 16.2935C3.89715 16.2935 3.89715 16.2935 3.97111 16.2935C4.3409 16.2195 4.63673 15.8497 4.56278 15.406L4.3409 14.1487C4.48882 14.2966 4.71069 14.4445 4.85861 14.5924C4.85861 14.5924 4.85861 14.5924 4.93257 14.5924C5.00653 14.6664 5.08049 14.7404 5.15444 14.7404C5.30236 14.8883 5.45028 14.9622 5.67215 15.0362C5.82007 15.332 6.04194 15.406 6.26382 15.5539H6.33778C6.41173 15.6279 6.55965 15.6279 6.70757 15.7018C7.0034 15.7758 7.29923 15.8497 7.52111 15.9237C7.66903 15.9237 7.81694 15.9977 7.96486 15.9977H8.03882C8.11278 15.9977 8.26069 15.9977 8.33465 15.9977C8.48257 15.9977 8.70444 15.9977 8.85236 15.9977C12.5503 15.9977 15.5086 13.0393 15.5086 9.34141C15.5826 8.97161 15.2128 8.67578 14.843 8.67578Z" fill="#757575"/>
<path d="M3.08345 10.1545C3.5272 10.1545 3.82303 9.85867 3.82303 9.41492C3.82303 6.53055 6.11574 4.23784 9.00011 4.23784C9.14803 4.23784 9.3699 4.23784 9.51782 4.23784C9.66574 4.23784 9.7397 4.23784 9.88761 4.3118C10.0355 4.3118 10.1095 4.38576 10.2574 4.38576C10.3314 4.38576 10.4053 4.45972 10.4793 4.45972C10.997 4.60763 11.5147 4.82951 11.9584 5.1993C12.0324 5.27326 12.1064 5.27326 12.1803 5.34722C12.2543 5.42117 12.3282 5.42117 12.4022 5.49513C12.4762 5.56909 12.5501 5.71701 12.698 5.79097C12.772 5.86492 12.772 5.86492 12.8459 5.93888L11.5147 6.16076C11.1449 6.23472 10.8491 6.60451 10.923 7.04826C10.997 7.41805 11.2928 7.63992 11.6626 7.63992C11.7366 7.63992 11.7366 7.63992 11.8105 7.63992L14.9168 7.04826C15.2866 6.9743 15.5824 6.60451 15.5084 6.16076L14.9168 3.12847C14.8428 2.75867 14.473 2.46284 14.0293 2.5368C13.6595 2.61076 13.3637 2.98055 13.4376 3.4243L13.6595 4.68159C13.5116 4.53367 13.2897 4.3118 13.1418 4.23784C13.1418 4.23784 13.1418 4.23784 13.0678 4.23784C12.9939 4.16388 12.9199 4.08992 12.8459 4.08992C12.698 3.94201 12.5501 3.86805 12.3282 3.72013C12.1064 3.57222 11.8845 3.49826 11.6626 3.35034H11.5887C11.5147 3.27638 11.3668 3.27638 11.2189 3.20242C10.923 3.12847 10.6272 3.05451 10.4053 2.98055C10.2574 2.98055 10.1095 2.90659 9.96157 2.90659H9.88761C9.81365 2.90659 9.66574 2.90659 9.59178 2.90659C9.44386 2.90659 9.22199 2.90659 9.07407 2.90659C5.37615 2.90659 2.41782 5.86492 2.41782 9.56284C2.34386 9.85867 2.6397 10.1545 3.08345 10.1545Z" fill="#757575"/>
</svg>
