<svg width="13" height="13" viewBox="0 0 13 13" fill="none" xmlns="http://www.w3.org/2000/svg">
<path d="M4.57017 9.49191e-06C7.09401 0.00509553 9.1416 2.05223 9.13523 4.56473C9.12887 7.09758 7.08509 9.13327 4.55744 9.12564C2.02214 9.11674 -0.00635195 7.07851 1.49469e-05 4.54439C0.00638184 2.03443 2.05652 -0.00507655 4.57017 9.49191e-06ZM8.4909 4.56473C8.48454 2.37011 6.73237 0.638308 4.52815 0.645937C2.38505 0.654837 0.636704 2.41715 0.641798 4.56346C0.648165 6.74156 2.40161 8.48989 4.57908 8.4848C6.74128 8.47971 8.49854 6.71867 8.4909 4.56473Z" fill="black"/>
<path d="M7.82129 8.58407C8.07978 8.3285 8.32427 8.08818 8.57895 7.83643C8.59678 7.85296 8.62861 7.88093 8.6579 7.91017C10.0382 9.28849 11.4173 10.6668 12.7977 12.0439C12.9021 12.1481 12.9976 12.2549 13.0001 12.4164C13.0039 12.6186 12.8346 12.864 12.6194 12.9619C12.4398 13.0433 12.2501 12.9975 12.0807 12.8284C10.8354 11.5848 9.59001 10.3413 8.34465 9.09776C8.17019 8.9223 7.9932 8.75191 7.82129 8.58407Z" fill="black"/>
<path d="M8.49072 4.56482C8.49836 6.71876 6.7411 8.4798 4.5789 8.48488C2.4027 8.48997 0.64798 6.74291 0.641613 4.56354C0.636519 2.41724 2.38487 0.654922 4.52796 0.646021C6.73218 0.638392 8.48435 2.37019 8.49072 4.56482ZM4.67822 1.47505C4.08483 1.48013 3.63278 1.58312 3.20492 1.79165C3.03684 1.8743 2.97954 2.01798 3.05212 2.15912C3.12088 2.2939 3.26477 2.33077 3.42904 2.25448C4.58654 1.71918 5.837 2.01798 6.62522 3.01485C6.7411 3.16107 6.89263 3.19413 7.01487 3.09877C7.13839 3.00213 7.14858 2.84955 7.03397 2.70205C6.40365 1.901 5.57341 1.50429 4.67822 1.47505Z" fill="white"/>
<path d="M4.67874 1.4751C5.57392 1.50434 6.40416 1.90105 7.03321 2.70211C7.14909 2.8496 7.1389 3.00218 7.01411 3.09882C6.89187 3.19418 6.74034 3.16112 6.62446 3.0149C5.83751 2.01676 4.58705 1.71923 3.42828 2.25453C3.26401 2.33082 3.12139 2.29395 3.05136 2.15917C2.97878 2.01803 3.03608 1.87435 3.20416 1.7917C3.63329 1.58318 4.08534 1.48018 4.67874 1.4751Z" fill="#FEE04E"/>
</svg>
