<svg width="14" height="14" viewBox="0 0 14 14" fill="none" xmlns="http://www.w3.org/2000/svg">
<path d="M12.925 3.59115L12.925 3.59227C12.9259 3.9178 12.8631 4.24022 12.7402 4.54083C12.6174 4.84143 12.437 5.11418 12.2097 5.34335L12.2093 5.34371L10.3321 7.24581L10.1935 7.38628L10.3321 7.52676L10.961 8.16418C10.9611 8.16432 10.9613 8.16447 10.9614 8.16461C11.0868 8.29342 11.1574 8.46785 11.1569 8.65C11.1564 8.83235 11.0847 9.00655 10.9583 9.13468C10.832 9.26273 10.6614 9.33439 10.4839 9.33489C10.3066 9.3354 10.1358 9.26486 10.0088 9.13781C10.0087 9.13768 10.0086 9.13754 10.0084 9.1374L9.37946 8.49986L9.23707 8.35554L9.0947 8.49987L4.72223 12.9327L4.72219 12.9327C4.65943 12.9964 4.58504 13.0467 4.50336 13.081C4.42169 13.1154 4.33424 13.133 4.246 13.133H4.24597H1.75H1.74989C1.66162 13.133 1.57415 13.1154 1.49245 13.0811C1.41073 13.0469 1.33631 12.9965 1.27351 12.9329C1.2107 12.8692 1.16075 12.7935 1.12663 12.7099C1.09252 12.6264 1.07495 12.5367 1.075 12.4462V12.446L1.075 9.91612L1.075 9.91609C1.07499 9.82553 1.09259 9.73592 1.12673 9.65241C1.16087 9.56889 1.21084 9.4932 1.27366 9.42957L1.2737 9.42953L5.647 4.99768L5.78561 4.85722L5.64701 4.71674L5.01725 4.0784L5.01686 4.07801C4.95377 4.01442 4.90354 3.93869 4.86917 3.85509C4.83481 3.77149 4.81702 3.68174 4.81689 3.59101C4.81677 3.50028 4.83431 3.41048 4.86845 3.32678C4.90259 3.24308 4.95261 3.16721 5.01552 3.10344C5.07843 3.03968 5.15299 2.98927 5.23485 2.95496C5.3167 2.92067 5.40433 2.90311 5.49274 2.90324C5.58115 2.90336 5.66873 2.92116 5.75049 2.95569C5.83226 2.99023 5.90668 3.04085 5.96942 3.10479L5.96982 3.1052L6.59951 3.74336L6.74191 3.88767L6.88427 3.74332L8.75917 1.84223C9.22482 1.39211 9.84305 1.14141 10.4855 1.14141C11.128 1.14141 11.7463 1.39216 12.2119 1.84239C12.4384 2.07119 12.6181 2.34331 12.7405 2.64313C12.8632 2.94359 12.9259 3.26582 12.925 3.59115ZM3.88367 11.7591H3.96732L4.02606 11.6995L8.14215 7.52665L8.2807 7.38618L8.14213 7.24573L6.88432 5.97081L6.74196 5.82651L6.59959 5.97079L2.48264 10.1429L2.425 10.2013V10.2834V11.5591V11.7591H2.625H3.88367Z" fill="#333333" stroke="white" stroke-width="0.4"/>
</svg>
